<svg width="1200" height="760" viewBox="0 0 1200 760" fill="none" xmlns="http://www.w3.org/2000/svg">
  <rect width="1200" height="760" rx="36" fill="#091527"/>
  <rect x="78" y="78" width="1044" height="604" rx="28" fill="#0F1E32"/>
  <rect x="116" y="118" width="220" height="524" rx="22" fill="#152941"/>
  <rect x="372" y="118" width="710" height="204" rx="22" fill="#10213A"/>
  <rect x="372" y="352" width="340" height="290" rx="22" fill="#152941"/>
  <rect x="742" y="352" width="340" height="290" rx="22" fill="#17304D"/>
  <rect x="420" y="166" width="188" height="18" rx="9" fill="#27486E"/>
  <rect x="420" y="206" width="420" height="18" rx="9" fill="#1C3A5B"/>
  <rect x="420" y="246" width="340" height="18" rx="9" fill="#7DD3FC"/>
  <circle cx="882" cy="218" r="66" fill="#173A5B"/>
  <path d="M882 182C900.391 182 915.303 196.912 915.303 215.303C915.303 233.694 900.391 248.606 882 248.606C863.609 248.606 848.697 233.694 848.697 215.303" stroke="#7DD3FC" stroke-width="18" stroke-linecap="round"/>
  <rect x="410" y="402" width="264" height="24" rx="12" fill="#1E3959"/>
  <rect x="410" y="446" width="220" height="24" rx="12" fill="#7DD3FC"/>
  <rect x="410" y="490" width="176" height="24" rx="12" fill="#1E3959"/>
</svg>
